<?xml version="1.0" encoding="utf-8"?>
<!-- Generator: Adobe Illustrator 21.1.0, SVG Export Plug-In . SVG Version: 6.00 Build 0)  -->
<svg version="1.1" id="Page_1" xmlns="http://www.w3.org/2000/svg" xmlns:xlink="http://www.w3.org/1999/xlink" x="0px" y="0px"
	 viewBox="0 0 79.9 79.7" style="enable-background:new 0 0 79.9 79.7;" xml:space="preserve">
<style type="text/css">
	.st0{fill-rule:evenodd;clip-rule:evenodd;fill:#098EC1;}
</style>
<g id="Layer_5">
	<path class="st0" d="M31.8,42.1v9.5h38.5v2.8H30.9c-1.2,0-2.2-0.8-2.2-1.8V41.2c0-1,1-1.8,2.2-1.8h39.5v2.8H31.8L31.8,42.1z
		 M69.1,43.7H33.3c0.1,0.4,0.2,0.9,0.2,1.3h35C68.7,44.5,68.9,44.1,69.1,43.7L69.1,43.7z M68.3,46.1H33.7c0,0.4,0,0.9,0,1.3h34.6
		C68.3,47,68.3,46.6,68.3,46.1L68.3,46.1z M68.6,48.6h-35c-0.1,0.4-0.1,0.9-0.2,1.3h35.8C68.9,49.5,68.7,49.1,68.6,48.6L68.6,48.6z"
		/>
</g>
<g id="Layer_4">
	<path class="st0" d="M56.7,15c3.7,1.7,6,5.9,5.7,10.9c-0.4,6.5-5.3,11.7-10.9,11.7c-0.7,0-1.4-0.6-2-0.7c-0.6,0.2-1.3,0.7-2,0.7
		c-5.6,0-10.5-5.2-10.9-11.7c-0.3-5,2-9.2,5.7-10.9c2.8-1.3,4.1-0.9,6.5,0.1c-0.3-1.8-0.3-4.5,1.4-6.6c0.5-0.3,1.5,0.2,1.5,1.1
		c-1.5,1.7-1.6,4.1-1.5,5.5C52.5,14.2,53.8,13.7,56.7,15L56.7,15z M46.1,16.8c-1-0.4-1.8-0.4-3.2,0.3c-2.8,1.3-4,4.5-3.8,7.4
		c0.1,2,1,4,2.3,5.6c-0.5-1.3-0.8-2.6-0.9-3.9c-0.2-3.4,1.1-7.2,4-8.7C45.1,17.1,45.6,16.9,46.1,16.8L46.1,16.8z M43,11.6
		c-1.5-0.1-2.2-0.9-2.5-1.9c-0.3-0.9-0.2-1.5-0.3-2.4c-0.1-1.2-0.8-1.6-0.8-1.8c0-0.1,0.2-0.2,0.6-0.2c0.3,0,0.7,0,1,0
		c0.7,0,1.7,0.1,1.9,0.2c2.1,0.4,4.8,1.6,5.1,4.2c0.1,1.2,0.1,2.5-1.1,3C46.2,11.4,44.2,11.7,43,11.6L43,11.6z"/>
</g>
<g id="Layer_3">
	<path class="st0" d="M75.6,59.3v10.9H26.1v3.2h50.6c1.4,0,2.5-0.9,2.5-2.1V58.3c0-1.2-1.1-2.1-2.5-2.1H26.1v3.2H75.6L75.6,59.3z
		 M27.6,61.1h46.3c-0.1,0.5-0.2,1-0.3,1.5H28.2C28,62.1,27.8,61.6,27.6,61.1L27.6,61.1z M28.5,63.9h45c0,0.5,0,1,0,1.5h-45
		C28.5,64.9,28.5,64.4,28.5,63.9L28.5,63.9z M28.2,66.8h45.4c0.1,0.5,0.2,1,0.3,1.5H27.6C27.8,67.8,28,67.3,28.2,66.8L28.2,66.8z"/>
</g>
<g id="Layer_2">
	<path class="st0" d="M4.7,66.5l9.4,3.5l16.2-44l2.7,1L16.5,71.9c-0.4,1.2-1.6,1.8-2.6,1.5L2.6,69.2c-1-0.4-1.5-1.6-1-2.8l16.5-44.9
		l2.7,1L4.7,66.5L4.7,66.5z M22,24.3L6.8,65.6c0.5,0.1,0.9,0.1,1.4,0.2l14.9-40.4C22.7,25.1,22.3,24.7,22,24.3L22,24.3z M24.1,26
		L9.4,66.1c0.4,0.1,0.9,0.3,1.3,0.5l14.8-40.1C25,26.4,24.5,26.2,24.1,26L24.1,26z M26.6,26.7L11.7,67.1c0.4,0.2,0.8,0.5,1.2,0.7
		l15.2-41.2C27.6,26.7,27.1,26.7,26.6,26.7L26.6,26.7z"/>
</g>
</svg>
